<svg width="24" height="24" viewBox="0 0 24 24" fill="none" xmlns="http://www.w3.org/2000/svg">
<path d="M12 0.5C15.2571 0.5 15.6565 0.513979 16.9238 0.571289C18.1543 0.626953 18.973 0.821742 19.6807 1.0957L19.6846 1.09766C20.4163 1.37424 21.08 1.80638 21.6289 2.36523L21.6357 2.37207C22.1943 2.91968 22.6258 3.5819 22.9014 4.31445L22.9033 4.32031C23.178 5.02726 23.372 5.84554 23.4287 7.07422C23.4871 8.3444 23.5 8.74366 23.5 12C23.5 15.2571 23.486 15.6564 23.4287 16.9248C23.3731 18.1531 23.1781 18.9714 22.9033 19.6787L22.9014 19.6836C22.6258 20.4164 22.194 21.081 21.6357 21.6299L21.6299 21.6357C21.081 22.1946 20.4165 22.6258 19.6846 22.9014L19.6797 22.9033C18.9727 23.178 18.1545 23.372 16.9258 23.4287C15.6567 23.4871 15.2574 23.5 12 23.5C8.74294 23.5 8.34361 23.486 7.0752 23.4287C5.84693 23.3731 5.0286 23.1781 4.32129 22.9033L4.31641 22.9014L4.04492 22.791C3.41925 22.5161 2.85048 22.1244 2.37012 21.6357L2.36426 21.6289L2.16016 21.418C1.69963 20.9137 1.33892 20.3254 1.09766 19.6846L1.0957 19.6807L0.99707 19.4092C0.775815 18.7619 0.620941 18.0008 0.571289 16.9258C0.512915 15.6556 0.5 15.2563 0.5 12C0.5 8.74294 0.513979 8.34349 0.571289 7.07617C0.626953 5.84568 0.821742 5.02698 1.0957 4.31934L1.09766 4.31543C1.37388 3.58285 1.80639 2.91942 2.36523 2.37109L2.37207 2.36426C2.92011 1.80579 3.58325 1.37359 4.31543 1.09766L4.31934 1.0957C5.02371 0.823011 5.83849 0.629934 7.05859 0.572266H7.06445L7.07617 0.571289C8.34378 0.512935 8.74295 0.5 12 0.5ZM12 1.66211C8.79393 1.66211 8.40502 1.67407 7.12793 1.73242C5.90268 1.78839 5.21445 1.99554 4.74121 2.17969H4.74023C4.12034 2.4214 3.66192 2.71616 3.19336 3.18359C2.74381 3.62095 2.39788 4.15327 2.17969 4.74121C1.99554 5.21445 1.78839 5.90268 1.73242 7.12793C1.67407 8.40502 1.66211 8.79393 1.66211 12C1.66211 15.2061 1.67407 15.595 1.73242 16.8721C1.78141 17.9445 1.94562 18.6057 2.10938 19.0713L2.17969 19.2588C2.39595 19.8413 2.73889 20.3701 3.18359 20.8057V20.8066C3.62095 21.2563 4.15434 21.6014 4.74121 21.8193V21.8203C5.21445 22.0045 5.90268 22.2116 7.12793 22.2676C8.40502 22.3259 8.79284 22.3379 12 22.3379C15.2072 22.3379 15.595 22.3259 16.8721 22.2676C18.0973 22.2116 18.7855 22.0045 19.2588 21.8203H19.2598C19.8818 21.5778 20.3403 21.2808 20.8105 20.8105C21.2579 20.374 21.6032 19.8436 21.8203 19.2588C22.0045 18.7855 22.2116 18.0973 22.2676 16.8721C22.3259 15.595 22.3379 15.2061 22.3379 12C22.3379 8.79393 22.3259 8.40502 22.2676 7.12793C22.2116 5.90268 22.0045 5.21445 21.8203 4.74121V4.74023C21.6081 4.19598 21.3545 3.77667 20.9795 3.36523L20.8115 3.18848C20.428 2.79559 19.9721 2.48154 19.4697 2.26367L19.251 2.17676C18.778 1.99337 18.0906 1.78808 16.8721 1.73242C15.595 1.67407 15.2061 1.66211 12 1.66211ZM12 6.33203C12.7443 6.33203 13.4813 6.47883 14.1689 6.76367C14.8566 7.04852 15.4815 7.46586 16.0078 7.99219C16.5341 8.51851 16.9515 9.14338 17.2363 9.83105C17.5212 10.5187 17.668 11.2557 17.668 12C17.668 12.7443 17.5212 13.4813 17.2363 14.1689C16.9515 14.8566 16.5341 15.4815 16.0078 16.0078C14.9449 17.0708 13.5033 17.668 12 17.668C10.4967 17.668 9.05515 17.0708 7.99219 16.0078C6.92923 14.9449 6.33203 13.5033 6.33203 12C6.33203 10.4967 6.92923 9.05515 7.99219 7.99219C8.51851 7.46586 9.14338 7.04852 9.83105 6.76367C10.5187 6.47883 11.2557 6.33203 12 6.33203ZM13.5166 7.76074C12.8898 7.53665 12.2211 7.45419 11.5586 7.51953C10.8961 7.5849 10.2565 7.79639 9.68555 8.13867C9.11449 8.48099 8.62577 8.94545 8.25586 9.49902C7.88608 10.0525 7.64365 10.6814 7.5459 11.3398C7.44817 11.9983 7.49731 12.6705 7.69043 13.3076C7.88357 13.9448 8.21613 14.531 8.66309 15.0244C9.05413 15.4561 9.52439 15.8077 10.0479 16.0596L10.2754 16.1611C11.2382 16.5618 12.3103 16.6153 13.3086 16.3135C14.3069 16.0116 15.1695 15.373 15.749 14.5059C16.3285 13.6386 16.5894 12.5965 16.4863 11.5586C16.3832 10.5208 15.9223 9.55063 15.1836 8.81445C14.7128 8.34424 14.1431 7.98476 13.5166 7.76074ZM18.5215 4.73145C18.6496 4.72962 18.7768 4.75359 18.8955 4.80176C19.0142 4.84995 19.1223 4.92111 19.2129 5.01172C19.3036 5.10239 19.3756 5.21028 19.4238 5.3291C19.472 5.44778 19.495 5.57507 19.4932 5.70312C19.4913 5.83125 19.4637 5.9579 19.4121 6.0752C19.3605 6.19244 19.2865 6.29879 19.1934 6.38672C19.012 6.55777 18.7707 6.65199 18.5215 6.64844C18.2721 6.6448 18.0338 6.54353 17.8574 6.36719C17.6811 6.19085 17.5808 5.95246 17.5771 5.70312C17.5736 5.45401 17.667 5.21351 17.8379 5.03223C17.9259 4.93895 18.032 4.86415 18.1494 4.8125C18.2667 4.7609 18.3933 4.73331 18.5215 4.73145Z" fill="white" stroke="black"/>
</svg>
